mtllib model_9.mtl
o model_9
v -278.2899169921875 631.77490234375 -704.6365356445312 
v -275.84906005859375 630.4640502929688 -701.0304565429688 
v -317.3439025878906 471.5908203125 -738.5339965820312 
v -314.7745666503906 470.2799987792969 -734.9279174804688 
v -536.380126953125 487.67041015625 -563.2770385742188 
v -314.7745666503906 470.2799987792969 -734.9279174804688 
v -497.326171875 647.8544311523438 -529.379638671875 
v -275.84906005859375 630.4640502929688 -701.0304565429688 
v -497.326171875 647.8544311523438 528.653076171875 
v -536.380126953125 487.67041015625 562.5504760742188 
v -499.8955078125 649.165283203125 532.2591552734375 
v -538.8209838867188 488.9812316894531 566.1566162109375 
v -497.326171875 647.8544311523438 528.653076171875 
v -499.8955078125 649.165283203125 532.2591552734375 
v -275.84906005859375 630.4640502929688 700.3038940429688 
v -278.2899169921875 631.77490234375 703.9099731445312 
v -538.8209838867188 488.9812316894531 566.1566162109375 
v -536.380126953125 487.67041015625 562.5504760742188 
v -317.3439025878906 471.5908203125 737.8074340820312 
v -314.7745666503906 470.2799987792969 734.2012939453125 
v -275.84906005859375 630.4640502929688 700.3038940429688 
v -314.7745666503906 470.2799987792969 734.2012939453125 
v -497.326171875 647.8544311523438 528.653076171875 
v -536.380126953125 487.67041015625 562.5504760742188 
v -278.2899169921875 631.77490234375 703.9099731445312 
v -317.3439025878906 471.5908203125 737.8074340820312 
v -275.84906005859375 630.4640502929688 700.3038940429688 
v -314.7745666503906 470.2799987792969 734.2012939453125 
v -497.326171875 647.8544311523438 -529.379638671875 
v -275.84906005859375 630.4640502929688 -701.0304565429688 
v -499.8955078125 649.165283203125 -532.9857177734375 
v -278.2899169921875 631.77490234375 -704.6365356445312 
v -538.8209838867188 488.9812316894531 -566.8831787109375 
v -317.3439025878906 471.5908203125 -738.5339965820312 
v -536.380126953125 487.67041015625 -563.2770385742188 
v -314.7745666503906 470.2799987792969 -734.9279174804688 
v -497.326171875 647.8544311523438 -529.379638671875 
v -499.8955078125 649.165283203125 -532.9857177734375 
v -536.380126953125 487.67041015625 -563.2770385742188 
v -538.8209838867188 488.9812316894531 -566.8831787109375 
vn 0.7891572117805481 -0.060402292758226395 -0.6112139225006104 
vn 0.7891572117805481 -0.060402292758226395 -0.6112139225006104 
vn 0.7891572117805481 -0.060402292758226395 -0.6112139225006104 
vn 0.7891572117805481 -0.060402292758226395 -0.6112139225006104 
vn 0.5706254243850708 -0.29752129316329956 0.7654199600219727 
vn 0.5706254243850708 -0.29752129316329956 0.7654199600219727 
vn 0.5706254243850708 -0.29752129316329956 0.7654199600219727 
vn 0.5706254243850708 -0.29752129316329956 0.7654199600219727 
vn -0.7891572117805481 0.060402292758226395 -0.6112139225006104 
vn -0.7891572117805481 0.060402292758226395 -0.6112139225006104 
vn -0.7891572117805481 0.060402292758226395 -0.6112139225006104 
vn -0.7891572117805481 0.060402292758226395 -0.6112139225006104 
vn 0.2300199419260025 0.9520372748374939 -0.2017817199230194 
vn 0.2300199419260025 0.9520372748374939 -0.2017817199230194 
vn 0.2300199419260025 0.9520372748374939 -0.2017817199230194 
vn 0.2300199419260025 0.9520372748374939 -0.2017817199230194 
vn -0.23368805646896362 -0.9511435627937317 0.2017817199230194 
vn -0.23368805646896362 -0.9511435627937317 0.2017817199230194 
vn -0.23368805646896362 -0.9511435627937317 0.2017817199230194 
vn -0.23368805646896362 -0.9511435627937317 0.2017817199230194 
vn 0.5703579187393188 -0.29803377389907837 -0.7654199600219727 
vn 0.5703579187393188 -0.29803377389907837 -0.7654199600219727 
vn 0.5703579187393188 -0.29803377389907837 -0.7654199600219727 
vn 0.5703579187393188 -0.29803377389907837 -0.7654199600219727 
vn 0.7891641855239868 -0.060310814529657364 0.6112139225006104 
vn 0.7891641855239868 -0.060310814529657364 0.6112139225006104 
vn 0.7891641855239868 -0.060310814529657364 0.6112139225006104 
vn 0.7891641855239868 -0.060310814529657364 0.6112139225006104 
vn 0.2300199419260025 0.9520372748374939 0.2017817199230194 
vn 0.2300199419260025 0.9520372748374939 0.2017817199230194 
vn 0.2300199419260025 0.9520372748374939 0.2017817199230194 
vn 0.2300199419260025 0.9520372748374939 0.2017817199230194 
vn -0.23368805646896362 -0.9511435627937317 -0.2017817199230194 
vn -0.23368805646896362 -0.9511435627937317 -0.2017817199230194 
vn -0.23368805646896362 -0.9511435627937317 -0.2017817199230194 
vn -0.23368805646896362 -0.9511435627937317 -0.2017817199230194 
vn -0.788867712020874 0.06407222896814346 0.6112139225006104 
vn -0.788867712020874 0.06407222896814346 0.6112139225006104 
vn -0.788867712020874 0.06407222896814346 0.6112139225006104 
vn -0.788867712020874 0.06407222896814346 0.6112139225006104 
vt 0.2255793958902359 0.04569593444466591 
vt 0.2255793958902359 0.026639699935913086 
vt 0.7416674494743347 0.04569593444466591 
vt 0.7416674494743347 0.026639699935913086 
vt 0.06756749749183655 0.1271180361509323 
vt 0.9286954998970032 0.1271180361509323 
vt 0.06756749749183655 0.8613435626029968 
vt 0.9286954998970032 0.8613435626029968 
vt 0.06756749749183655 0.0891074687242508 
vt 0.583655595779419 0.0891074687242508 
vt 0.06756749749183655 0.07005123049020767 
vt 0.583655595779419 0.07005123049020767 
vt 0.06756749749183655 0.10806179791688919 
vt 0.06756749749183655 0.1271180361509323 
vt 0.9286954998970032 0.10806179791688919 
vt 0.9286954998970032 0.1271180361509323 
vt 0.06756749749183655 0.0891074687242508 
vt 0.06756749749183655 0.10806179791688919 
vt 0.9286954998970032 0.0891074687242508 
vt 0.9286954998970032 0.10806179791688919 
vt 0.9286954998970032 0.8613435626029968 
vt 0.9286954998970032 0.1271180361509323 
vt 0.06756749749183655 0.8613435626029968 
vt 0.06756749749183655 0.1271180361509323 
vt 0.2255793958902359 0.04569593444466591 
vt 0.7416674494743347 0.04569593444466591 
vt 0.2255793958902359 0.026639699935913086 
vt 0.7416674494743347 0.026639699935913086 
vt 0.06756749749183655 0.10806179791688919 
vt 0.9286954998970032 0.10806179791688919 
vt 0.06756749749183655 0.1271180361509323 
vt 0.9286954998970032 0.1271180361509323 
vt 0.06756749749183655 0.0891074687242508 
vt 0.9286954998970032 0.0891074687242508 
vt 0.06756749749183655 0.10806179791688919 
vt 0.9286954998970032 0.10806179791688919 
vt 0.06756749749183655 0.0891074687242508 
vt 0.06756749749183655 0.07005123049020767 
vt 0.583655595779419 0.0891074687242508 
vt 0.583655595779419 0.07005123049020767 
s on 
f 1/1/1 2/2/2 3/3/3 
f 2/2/2 4/4/4 3/3/3 
f 3/3/3 4/4/4 4/4/4 
f 4/4/4 5/5/5 4/4/4 
f 4/4/4 5/5/5 5/5/5 
f 5/5/5 6/6/6 5/5/5 
f 5/5/5 6/6/6 7/7/7 
f 6/6/6 8/8/8 7/7/7 
f 7/7/7 8/8/8 8/8/8 
f 8/8/8 9/9/9 8/8/8 
f 8/8/8 9/9/9 9/9/9 
f 9/9/9 10/10/10 9/9/9 
f 9/9/9 10/10/10 11/11/11 
f 10/10/10 12/12/12 11/11/11 
f 11/11/11 12/12/12 12/12/12 
f 12/12/12 13/13/13 12/12/12 
f 12/12/12 13/13/13 13/13/13 
f 13/13/13 14/14/14 13/13/13 
f 13/13/13 14/14/14 15/15/15 
f 14/14/14 16/16/16 15/15/15 
f 15/15/15 16/16/16 16/16/16 
f 16/16/16 17/17/17 16/16/16 
f 16/16/16 17/17/17 17/17/17 
f 17/17/17 18/18/18 17/17/17 
f 17/17/17 18/18/18 19/19/19 
f 18/18/18 20/20/20 19/19/19 
f 19/19/19 20/20/20 20/20/20 
f 20/20/20 21/21/21 20/20/20 
f 20/20/20 21/21/21 21/21/21 
f 21/21/21 22/22/22 21/21/21 
f 21/21/21 22/22/22 23/23/23 
f 22/22/22 24/24/24 23/23/23 
f 23/23/23 24/24/24 24/24/24 
f 24/24/24 25/25/25 24/24/24 
f 24/24/24 25/25/25 25/25/25 
f 25/25/25 26/26/26 25/25/25 
f 25/25/25 26/26/26 27/27/27 
f 26/26/26 28/28/28 27/27/27 
f 27/27/27 28/28/28 28/28/28 
f 28/28/28 29/29/29 28/28/28 
f 28/28/28 29/29/29 29/29/29 
f 29/29/29 30/30/30 29/29/29 
f 29/29/29 30/30/30 31/31/31 
f 30/30/30 32/32/32 31/31/31 
f 31/31/31 32/32/32 32/32/32 
f 32/32/32 33/33/33 32/32/32 
f 32/32/32 33/33/33 33/33/33 
f 33/33/33 34/34/34 33/33/33 
f 33/33/33 34/34/34 35/35/35 
f 34/34/34 36/36/36 35/35/35 
f 35/35/35 36/36/36 36/36/36 
f 36/36/36 37/37/37 36/36/36 
f 36/36/36 37/37/37 37/37/37 
f 37/37/37 38/38/38 37/37/37 
f 37/37/37 38/38/38 39/39/39 
f 38/38/38 40/40/40 39/39/39 

