mtllib model_10.mtl
o model_10
v -973.4747924804688 -2.8984498977661133 -76.94740295410156 
v -991.2279663085938 -2.8984498977661133 -122.60330200195312 
v -973.4747924804688 194.0615997314453 -76.94740295410156 
v -991.2279663085938 194.0615997314453 -122.60330200195312 
v -991.2279663085938 194.0615997314453 183.29122924804688 
v -1085.9114990234375 235.3294219970703 101.11061096191406 
v -1112.541259765625 194.0615997314453 279.1686096191406 
v -1159.8829345703125 235.3294219970703 160.46328735351562 
v -1151.00634765625 194.0615997314453 292.8653869628906 
v -1183.5538330078125 235.3294219970703 169.59446716308594 
v -1349.25 194.0615997314453 320.2589416503906 
v -1349.25 235.3294219970703 183.29122924804688 
v -1183.5538330078125 235.3294219970703 -113.47212219238281 
v -1151.00634765625 194.0615997314453 -232.17745971679688 
v -1349.25 235.3294219970703 -127.16889190673828 
v -1349.25 194.0615997314453 -259.5710144042969 
v -1183.5538330078125 235.3294219970703 169.59446716308594 
v -1151.00634765625 194.0615997314453 292.8653869628906 
v -1159.8829345703125 235.3294219970703 160.46328735351562 
v -1112.541259765625 194.0615997314453 279.1686096191406 
v -1151.00634765625 194.0615997314453 292.8653869628906 
v -1349.25 194.0615997314453 320.2589416503906 
v -1151.00634765625 -2.8984498977661133 292.8653869628906 
v -1349.25 -2.8984498977661133 320.2589416503906 
v -991.2279663085938 194.0615997314453 183.29122924804688 
v -1112.541259765625 194.0615997314453 279.1686096191406 
v -991.2279663085938 -2.8984498977661133 183.29122924804688 
v -1112.541259765625 -2.8984498977661133 279.1686096191406 
v -1159.8829345703125 235.3294219970703 -104.3409423828125 
v -1112.541259765625 194.0615997314453 -218.48068237304688 
v -1183.5538330078125 235.3294219970703 -113.47212219238281 
v -1151.00634765625 194.0615997314453 -232.17745971679688 
v -1068.1583251953125 235.3294219970703 87.4138412475586 
v -973.4747924804688 194.0615997314453 137.6353302001953 
v -1068.1583251953125 235.3294219970703 -31.291500091552734 
v -973.4747924804688 194.0615997314453 -76.94740295410156 
v -1068.1583251953125 235.3294219970703 -31.291500091552734 
v -973.4747924804688 194.0615997314453 -76.94740295410156 
v -1085.9114990234375 235.3294219970703 -44.9882698059082 
v -991.2279663085938 194.0615997314453 -122.60330200195312 
v -973.4747924804688 194.0615997314453 137.6353302001953 
v -1068.1583251953125 235.3294219970703 87.4138412475586 
v -991.2279663085938 194.0615997314453 183.29122924804688 
v -1085.9114990234375 235.3294219970703 101.11061096191406 
v -991.2279663085938 -2.8984498977661133 -122.60330200195312 
v -1112.541259765625 -2.8984498977661133 -218.48068237304688 
v -991.2279663085938 194.0615997314453 -122.60330200195312 
v -1112.541259765625 194.0615997314453 -218.48068237304688 
v -1151.00634765625 194.0615997314453 -232.17745971679688 
v -1112.541259765625 194.0615997314453 -218.48068237304688 
v -1151.00634765625 -2.8984498977661133 -232.17745971679688 
v -1112.541259765625 -2.8984498977661133 -218.48068237304688 
v -1112.541259765625 194.0615997314453 279.1686096191406 
v -1151.00634765625 194.0615997314453 292.8653869628906 
v -1112.541259765625 -2.8984498977661133 279.1686096191406 
v -1151.00634765625 -2.8984498977661133 292.8653869628906 
v -1085.9114990234375 235.3294219970703 -44.9882698059082 
v -991.2279663085938 194.0615997314453 -122.60330200195312 
v -1159.8829345703125 235.3294219970703 -104.3409423828125 
v -1112.541259765625 194.0615997314453 -218.48068237304688 
v -1151.00634765625 194.0615997314453 -232.17745971679688 
v -1151.00634765625 -2.8984498977661133 -232.17745971679688 
v -1349.25 194.0615997314453 -259.5710144042969 
v -1349.25 -2.8984498977661133 -259.5710144042969 
v -973.4747924804688 -2.8984498977661133 137.6353302001953 
v -973.4747924804688 -2.8984498977661133 -76.94740295410156 
v -973.4747924804688 194.0615997314453 137.6353302001953 
v -973.4747924804688 194.0615997314453 -76.94740295410156 
v -973.4747924804688 194.0615997314453 137.6353302001953 
v -991.2279663085938 194.0615997314453 183.29122924804688 
v -973.4747924804688 -2.8984498977661133 137.6353302001953 
v -991.2279663085938 -2.8984498977661133 183.29122924804688 
v -1183.5538330078125 235.3294219970703 28.06117057800293 
v -1159.8829345703125 235.3294219970703 160.46328735351562 
v -1068.1583251953125 235.3294219970703 87.4138412475586 
v -1085.9114990234375 235.3294219970703 101.11061096191406 
v -1349.25 235.3294219970703 -127.16889190673828 
v -1183.5538330078125 235.3294219970703 28.06117057800293 
v -1183.5538330078125 235.3294219970703 -113.47212219238281 
v -1159.8829345703125 235.3294219970703 -104.3409423828125 
v -1068.1583251953125 235.3294219970703 -31.291500091552734 
v -1068.1583251953125 235.3294219970703 87.4138412475586 
v -1159.8829345703125 235.3294219970703 160.46328735351562 
v -1183.5538330078125 235.3294219970703 169.59446716308594 
v -1349.25 235.3294219970703 -127.16889190673828 
v -1349.25 235.3294219970703 183.29122924804688 
v -1183.5538330078125 235.3294219970703 28.06117057800293 
v -1349.25 235.3294219970703 183.29122924804688 
v -1183.5538330078125 235.3294219970703 169.59446716308594 
v -1183.5538330078125 235.3294219970703 28.06117057800293 
v -1085.9114990234375 235.3294219970703 -44.9882698059082 
vn 0.9417508840560913 0 -0.3363112509250641 
vn 0.9417508840560913 0 -0.3363112509250641 
vn 0.9417508840560913 0 -0.3363112509250641 
vn 0.9417508840560913 0 -0.3363112509250641 
vn 0.1931076943874359 0.9502591490745544 0.24437066912651062 
vn 0.1931076943874359 0.9502591490745544 0.24437066912651062 
vn 0.1931076943874359 0.9502591490745544 0.24437066912651062 
vn 0.1931076943874359 0.9502591490745544 0.24437066912651062 
vn 0.03770282492041588 0.9547980427742004 0.2948545813560486 
vn 0.03770282492041588 0.9547980427742004 0.2948545813560486 
vn 0.03770282492041588 0.9547980427742004 0.2948545813560486 
vn 0.03770282492041588 0.9547980427742004 0.2948545813560486 
vn 0.033973462879657745 0.9536397457122803 -0.2990269064903259 
vn 0.033973462879657745 0.9536397457122803 -0.2990269064903259 
vn 0.033973462879657745 0.9536397457122803 -0.2990269064903259 
vn 0.033973462879657745 0.9536397457122803 -0.2990269064903259 
vn 0.10164720565080643 0.952674925327301 0.2864931523799896 
vn 0.10164720565080643 0.952674925327301 0.2864931523799896 
vn 0.10164720565080643 0.952674925327301 0.2864931523799896 
vn 0.10164720565080643 0.952674925327301 0.2864931523799896 
vn 0.13503733277320862 0 0.990840494632721 
vn 0.13503733277320862 0 0.990840494632721 
vn 0.13503733277320862 0 0.990840494632721 
vn 0.13503733277320862 0 0.990840494632721 
vn 0.6266567707061768 0 0.7792953848838806 
vn 0.6266567707061768 0 0.7792953848838806 
vn 0.6266567707061768 0 0.7792953848838806 
vn 0.6266567707061768 0 0.7792953848838806 
vn 0.09801184386014938 0.9517881870269775 -0.29067665338516235 
vn 0.09801184386014938 0.9517881870269775 -0.29067665338516235 
vn 0.09801184386014938 0.9517881870269775 -0.29067665338516235 
vn 0.09801184386014938 0.9517881870269775 -0.29067665338516235 
vn 0.38964858651161194 0.9209610223770142 -0.002184694167226553 
vn 0.38964858651161194 0.9209610223770142 -0.002184694167226553 
vn 0.38964858651161194 0.9209610223770142 -0.002184694167226553 
vn 0.38964858651161194 0.9209610223770142 -0.002184694167226553 
vn 0.2935890555381775 0.94264817237854 -0.15880759060382843 
vn 0.2935890555381775 0.94264817237854 -0.15880759060382843 
vn 0.2935890555381775 0.94264817237854 -0.15880759060382843 
vn 0.2935890555381775 0.94264817237854 -0.15880759060382843 
vn 0.2935890555381775 0.94264817237854 0.15880759060382843 
vn 0.2935890555381775 0.94264817237854 0.15880759060382843 
vn 0.2935890555381775 0.94264817237854 0.15880759060382843 
vn 0.2935890555381775 0.94264817237854 0.15880759060382843 
vn 0.6266567707061768 0 -0.7792953848838806 
vn 0.6266567707061768 0 -0.7792953848838806 
vn 0.6266567707061768 0 -0.7792953848838806 
vn 0.6266567707061768 0 -0.7792953848838806 
vn 0.33013176918029785 0 -0.9439348578453064 
vn 0.33013176918029785 0 -0.9439348578453064 
vn 0.33013176918029785 0 -0.9439348578453064 
vn 0.33013176918029785 0 -0.9439348578453064 
vn 0.33013176918029785 0 0.9439348578453064 
vn 0.33013176918029785 0 0.9439348578453064 
vn 0.33013176918029785 0 0.9439348578453064 
vn 0.33013176918029785 0 0.9439348578453064 
vn 0.19867534935474396 0.9480103254318237 -0.24860523641109467 
vn 0.19867534935474396 0.9480103254318237 -0.24860523641109467 
vn 0.19867534935474396 0.9480103254318237 -0.24860523641109467 
vn 0.19867534935474396 0.9480103254318237 -0.24860523641109467 
vn 0.13503733277320862 0 -0.990840494632721 
vn 0.13503733277320862 0 -0.990840494632721 
vn 0.13503733277320862 0 -0.990840494632721 
vn 0.13503733277320862 0 -0.990840494632721 
vn 0.999997615814209 0 0.002184694167226553 
vn 0.999997615814209 0 0.002184694167226553 
vn 0.999997615814209 0 0.002184694167226553 
vn 0.999997615814209 0 0.002184694167226553 
vn 0.9417508840560913 0 0.3363112509250641 
vn 0.9417508840560913 0 0.3363112509250641 
vn 0.9417508840560913 0 0.3363112509250641 
vn 0.9417508840560913 0 0.3363112509250641 
vn -1.0341130485562108e-13 0.999997615814209 -0.002184694167226553 
vn -1.0341130485562108e-13 0.999997615814209 -0.002184694167226553 
vn -1.0341130485562108e-13 0.999997615814209 -0.002184694167226553 
vn -1.0341130485562108e-13 0.999997615814209 -0.002184694167226553 
vn -1.0341130485562108e-13 0.999997615814209 -0.002184694167226553 
vn -1.0341130485562108e-13 0.999997615814209 -0.002184694167226553 
vn -1.0341130485562108e-13 0.999997615814209 -0.002184694167226553 
vn -1.0341130485562108e-13 0.999997615814209 -0.002184694167226553 
vn -1.0341130485562108e-13 0.999997615814209 -0.002184694167226553 
vn -1.0341130485562108e-13 0.999997615814209 -0.002184694167226553 
vn -1.0341130485562108e-13 0.999997615814209 -0.002184694167226553 
vn -1.0341130485562108e-13 0.999997615814209 -0.002184694167226553 
vn -1.0341130485562108e-13 0.999997615814209 -0.002184694167226553 
vn -1.0341130485562108e-13 0.999997615814209 -0.002184694167226553 
vn -1.0341130485562108e-13 0.999997615814209 -0.002184694167226553 
vn -1.0341130485562108e-13 0.999997615814209 -0.002184694167226553 
vn -1.0341130485562108e-13 0.999997615814209 -0.002184694167226553 
vn -1.0341130485562108e-13 0.999997615814209 -0.002184694167226553 
vn -1.0341130485562108e-13 0.999997615814209 -0.002184694167226553 
vt 0.9318088889122009 0.005609429907053709 
vt 0.9968253374099731 0.009223979897797108 
vt 0.9179549813270569 0.26706188917160034 
vt 0.9819991588592529 0.275616317987442 
vt 0.6911874413490295 0.9569590091705322 
vt 0.5251829028129578 0.8808124661445618 
vt 0.7303187847137451 0.7567129135131836 
vt 0.5583595037460327 0.7475560307502747 
vt 0.7320201992988586 0.7032175660133362 
vt 0.5579949617385864 0.7152661085128784 
vt 0.7143989205360413 0.43983736634254456 
vt 0.5184990167617798 0.4828505218029022 
vt 0.26232218742370605 0.45393410325050354 
vt 0.2801865041255951 0.2851346433162689 
vt 0.489089697599411 0.5063450932502747 
vt 0.5413458943367004 0.3170631527900696 
vt 0.5579949617385864 0.7152661085128784 
vt 0.7320201992988586 0.7032175660133362 
vt 0.5583595037460327 0.7475560307502747 
vt 0.7303187847137451 0.7567129135131836 
vt 0.7320201992988586 0.7032175660133362 
vt 0.7143989205360413 0.43983736634254456 
vt 0.9908705353736877 0.7192420959472656 
vt 0.9947593808174133 0.43634331226348877 
vt 0.6911874413490295 0.9569590091705322 
vt 0.7303187847137451 0.7567129135131836 
vt 0.9598814249038696 0.990574300289154 
vt 0.9864956140518188 0.7781592607498169 
vt 0.230603888630867 0.45260879397392273 
vt 0.22635048627853394 0.2839297652244568 
vt 0.26232218742370605 0.45393410325050354 
vt 0.2801865041255951 0.2851346433162689 
vt 0.7095378637313843 0.4180295765399933 
vt 0.649260938167572 0.2746524214744568 
vt 0.8710458874702454 0.40863174200057983 
vt 0.9179549813270569 0.26706188917160034 
vt 0.8710458874702454 0.40863174200057983 
vt 0.9179549813270569 0.26706188917160034 
vt 0.8955941796302795 0.42742741107940674 
vt 0.9819991588592529 0.275616317987442 
vt 0.649260938167572 0.2746524214744568 
vt 0.7095378637313843 0.4180295765399933 
vt 0.5840014815330505 0.28609851002693176 
vt 0.6853541731834412 0.4386325180530548 
vt 0.0014058599481359124 0.038742806762456894 
vt 0.22428454458713531 0.02609187923371792 
vt 0.025832585990428925 0.31742459535598755 
vt 0.22635048627853394 0.2839297652244568 
vt 0.2801865041255951 0.2851346433162689 
vt 0.22635048627853394 0.2839297652244568 
vt 0.2822524607181549 0.02609187923371792 
vt 0.22428454458713531 0.02609187923371792 
vt 0.7303187847137451 0.7567129135131836 
vt 0.7320201992988586 0.7032175660133362 
vt 0.9864956140518188 0.7781592607498169 
vt 0.9908705353736877 0.7192420959472656 
vt 0.09741140156984329 0.4808022677898407 
vt 0.025832585990428925 0.31742459535598755 
vt 0.230603888630867 0.45260879397392273 
vt 0.22635048627853394 0.2839297652244568 
vt 0.2801865041255951 0.2851346433162689 
vt 0.2822524607181549 0.02609187923371792 
vt 0.5413458943367004 0.3170631527900696 
vt 0.561762273311615 0.040309108793735504 
vt 0.6335841417312622 0.003681669943034649 
vt 0.9318088889122009 0.005609429907053709 
vt 0.649260938167572 0.2746524214744568 
vt 0.9179549813270569 0.26706188917160034 
vt 0.649260938167572 0.2746524214744568 
vt 0.5840014815330505 0.28609851002693176 
vt 0.6335841417312622 0.003681669943034649 
vt 0.5629774928092957 0.008380585350096226 
vt 0.3798378109931946 0.6843014359474182 
vt 0.41070541739463806 0.4993569552898407 
vt 0.5362417697906494 0.602492094039917 
vt 0.5098706483840942 0.5780336856842041 
vt 0.15902508795261383 0.8915356397628784 
vt 0.3798378109931946 0.6843014359474182 
vt 0.3833620846271515 0.8739448189735413 
vt 0.4128929078578949 0.8635830879211426 
vt 0.5372139811515808 0.7587611675262451 
vt 0.5362417697906494 0.602492094039917 
vt 0.41070541739463806 0.4993569552898407 
vt 0.380931556224823 0.4893566966056824 
vt 0.15902508795261383 0.8915356397628784 
vt 0.1563515067100525 0.472247838973999 
vt 0.3798378109931946 0.6843014359474182 
vt 0.1563515067100525 0.472247838973999 
vt 0.380931556224823 0.4893566966056824 
vt 0.3798378109931946 0.6843014359474182 
vt 0.5112074017524719 0.7835810780525208 
s on 
f 1/1/1 2/2/2 3/3/3 
f 2/2/2 4/4/4 3/3/3 
f 3/3/3 4/4/4 4/4/4 
f 4/4/4 5/5/5 4/4/4 
f 4/4/4 5/5/5 5/5/5 
f 5/5/5 6/6/6 5/5/5 
f 5/5/5 6/6/6 7/7/7 
f 6/6/6 8/8/8 7/7/7 
f 7/7/7 8/8/8 8/8/8 
f 8/8/8 9/9/9 8/8/8 
f 8/8/8 9/9/9 9/9/9 
f 9/9/9 10/10/10 9/9/9 
f 9/9/9 10/10/10 11/11/11 
f 10/10/10 12/12/12 11/11/11 
f 11/11/11 12/12/12 12/12/12 
f 12/12/12 13/13/13 12/12/12 
f 12/12/12 13/13/13 13/13/13 
f 13/13/13 14/14/14 13/13/13 
f 13/13/13 14/14/14 15/15/15 
f 14/14/14 16/16/16 15/15/15 
f 15/15/15 16/16/16 16/16/16 
f 16/16/16 17/17/17 16/16/16 
f 16/16/16 17/17/17 17/17/17 
f 17/17/17 18/18/18 17/17/17 
f 17/17/17 18/18/18 19/19/19 
f 18/18/18 20/20/20 19/19/19 
f 19/19/19 20/20/20 20/20/20 
f 20/20/20 21/21/21 20/20/20 
f 20/20/20 21/21/21 21/21/21 
f 21/21/21 22/22/22 21/21/21 
f 21/21/21 22/22/22 23/23/23 
f 22/22/22 24/24/24 23/23/23 
f 23/23/23 24/24/24 24/24/24 
f 24/24/24 25/25/25 24/24/24 
f 24/24/24 25/25/25 25/25/25 
f 25/25/25 26/26/26 25/25/25 
f 25/25/25 26/26/26 27/27/27 
f 26/26/26 28/28/28 27/27/27 
f 27/27/27 28/28/28 28/28/28 
f 28/28/28 29/29/29 28/28/28 
f 28/28/28 29/29/29 29/29/29 
f 29/29/29 30/30/30 29/29/29 
f 29/29/29 30/30/30 31/31/31 
f 30/30/30 32/32/32 31/31/31 
f 31/31/31 32/32/32 32/32/32 
f 32/32/32 33/33/33 32/32/32 
f 32/32/32 33/33/33 33/33/33 
f 33/33/33 34/34/34 33/33/33 
f 33/33/33 34/34/34 35/35/35 
f 34/34/34 36/36/36 35/35/35 
f 35/35/35 36/36/36 36/36/36 
f 36/36/36 37/37/37 36/36/36 
f 36/36/36 37/37/37 37/37/37 
f 37/37/37 38/38/38 37/37/37 
f 37/37/37 38/38/38 39/39/39 
f 38/38/38 40/40/40 39/39/39 
f 39/39/39 40/40/40 40/40/40 
f 40/40/40 41/41/41 40/40/40 
f 40/40/40 41/41/41 41/41/41 
f 41/41/41 42/42/42 41/41/41 
f 41/41/41 42/42/42 43/43/43 
f 42/42/42 44/44/44 43/43/43 
f 43/43/43 44/44/44 44/44/44 
f 44/44/44 45/45/45 44/44/44 
f 44/44/44 45/45/45 45/45/45 
f 45/45/45 46/46/46 45/45/45 
f 45/45/45 46/46/46 47/47/47 
f 46/46/46 48/48/48 47/47/47 
f 47/47/47 48/48/48 48/48/48 
f 48/48/48 49/49/49 48/48/48 
f 48/48/48 49/49/49 49/49/49 
f 49/49/49 50/50/50 49/49/49 
f 49/49/49 50/50/50 51/51/51 
f 50/50/50 52/52/52 51/51/51 
f 51/51/51 52/52/52 52/52/52 
f 52/52/52 53/53/53 52/52/52 
f 52/52/52 53/53/53 53/53/53 
f 53/53/53 54/54/54 53/53/53 
f 53/53/53 54/54/54 55/55/55 
f 54/54/54 56/56/56 55/55/55 
f 55/55/55 56/56/56 56/56/56 
f 56/56/56 57/57/57 56/56/56 
f 56/56/56 57/57/57 57/57/57 
f 57/57/57 58/58/58 57/57/57 
f 57/57/57 58/58/58 59/59/59 
f 58/58/58 60/60/60 59/59/59 
f 59/59/59 60/60/60 60/60/60 
f 60/60/60 61/61/61 60/60/60 
f 60/60/60 61/61/61 61/61/61 
f 61/61/61 62/62/62 61/61/61 
f 61/61/61 62/62/62 63/63/63 
f 62/62/62 64/64/64 63/63/63 
f 63/63/63 64/64/64 64/64/64 
f 64/64/64 65/65/65 64/64/64 
f 64/64/64 65/65/65 65/65/65 
f 65/65/65 66/66/66 65/65/65 
f 65/65/65 66/66/66 67/67/67 
f 66/66/66 68/68/68 67/67/67 
f 67/67/67 68/68/68 68/68/68 
f 68/68/68 69/69/69 68/68/68 
f 68/68/68 69/69/69 69/69/69 
f 69/69/69 70/70/70 69/69/69 
f 69/69/69 70/70/70 71/71/71 
f 70/70/70 72/72/72 71/71/71 
f 71/71/71 72/72/72 72/72/72 
f 72/72/72 73/73/73 72/72/72 
f 72/72/72 73/73/73 73/73/73 
f 73/73/73 74/74/74 73/73/73 
f 73/73/73 74/74/74 75/75/75 
f 74/74/74 76/76/76 75/75/75 
f 75/75/75 76/76/76 76/76/76 
f 76/76/76 77/77/77 76/76/76 
f 76/76/76 77/77/77 77/77/77 
f 77/77/77 78/78/78 77/77/77 
f 77/77/77 78/78/78 79/79/79 
f 78/78/78 80/80/80 79/79/79 
f 79/79/79 80/80/80 80/80/80 
f 80/80/80 78/78/78 80/80/80 
f 80/80/80 78/78/78 81/81/81 
f 78/78/78 82/82/82 81/81/81 
f 83/83/83 78/78/78 84/84/84 
f 85/85/85 86/86/86 87/87/87 
f 88/88/88 89/89/89 90/90/90 
f 81/81/81 91/91/91 80/80/80 

