mtllib model_5.mtl
o model_5
v -103.20825958251953 29.783599853515625 722.5095825195312 
v -379.635009765625 29.783599853515625 771.0703735351562 
v -103.20825958251953 439.7472229003906 722.5095825195312 
v -379.635009765625 439.7472229003906 771.0703735351562 
v 90.87860107421875 439.7472229003906 722.5095825195312 
v 367.3053283691406 439.7472229003906 758.93017578125 
v 90.87860107421875 29.783599853515625 722.5095825195312 
v 367.3053283691406 29.783599853515625 758.93017578125 
v 367.3053283691406 29.783599853515625 -758.5947875976562 
v 367.3053283691406 439.7472229003906 -758.5947875976562 
v 90.87860107421875 29.783599853515625 -722.1741943359375 
v 90.87860107421875 439.7472229003906 -722.1741943359375 
v -103.20825958251953 29.783599853515625 -734.3143920898438 
v -103.20825958251953 439.7472229003906 -734.3143920898438 
v -379.635009765625 29.783599853515625 -770.7349853515625 
v -379.635009765625 439.7472229003906 -770.7349853515625 
v 367.3053283691406 29.783599853515625 -758.5947875976562 
v 367.3053283691406 439.7472229003906 -758.5947875976562 
v 90.87860107421875 29.783599853515625 -722.1741943359375 
v 90.87860107421875 439.7472229003906 -722.1741943359375 
v -103.20825958251953 29.783599853515625 -722.1741943359375 
v -103.20825958251953 439.7472229003906 -722.1741943359375 
v -379.635009765625 29.783599853515625 -770.7349853515625 
v -379.635009765625 439.7472229003906 -770.7349853515625 
v 367.3053283691406 29.783599853515625 758.93017578125 
v 90.87860107421875 29.783599853515625 722.5095825195312 
v 367.3053283691406 439.7472229003906 758.93017578125 
v 90.87860107421875 439.7472229003906 722.5095825195312 
v -103.20825958251953 29.783599853515625 734.6497802734375 
v -379.635009765625 29.783599853515625 771.0703735351562 
v -103.20825958251953 439.7472229003906 734.6497802734375 
v -379.635009765625 439.7472229003906 771.0703735351562 
vn -0.1479651927947998 -0.003780060913413763 -0.9889853596687317 
vn -0.1479651927947998 -0.003780060913413763 -0.9889853596687317 
vn -0.1479651927947998 -0.003780060913413763 -0.9889853596687317 
vn -0.1479651927947998 -0.003780060913413763 -0.9889853596687317 
vn 0.1263735443353653 0 -0.9919826984405518 
vn 0.1263735443353653 0 -0.9919826984405518 
vn 0.1263735443353653 0 -0.9919826984405518 
vn 0.1263735443353653 0 -0.9919826984405518 
vn 0.1263735443353653 0 0.9919826984405518 
vn 0.1263735443353653 0 0.9919826984405518 
vn 0.1263735443353653 0 0.9919826984405518 
vn 0.1263735443353653 0 0.9919826984405518 
vn -0.14796672761440277 0.0037195926997810602 0.9889853596687317 
vn -0.14796672761440277 0.0037195926997810602 0.9889853596687317 
vn -0.14796672761440277 0.0037195926997810602 0.9889853596687317 
vn -0.14796672761440277 0.0037195926997810602 0.9889853596687317 
vn 0.1263735443353653 0 0.9919826984405518 
vn 0.1263735443353653 0 0.9919826984405518 
vn 0.1263735443353653 0 0.9919826984405518 
vn 0.1263735443353653 0 0.9919826984405518 
vn -0.14796672761440277 0.0037195926997810602 0.9889853596687317 
vn -0.14796672761440277 0.0037195926997810602 0.9889853596687317 
vn -0.14796672761440277 0.0037195926997810602 0.9889853596687317 
vn -0.14796672761440277 0.0037195926997810602 0.9889853596687317 
vn 0.1263735443353653 0 -0.9919826984405518 
vn 0.1263735443353653 0 -0.9919826984405518 
vn 0.1263735443353653 0 -0.9919826984405518 
vn 0.1263735443353653 0 -0.9919826984405518 
vn -0.1479651927947998 -0.003780060913413763 -0.9889853596687317 
vn -0.1479651927947998 -0.003780060913413763 -0.9889853596687317 
vn -0.1479651927947998 -0.003780060913413763 -0.9889853596687317 
vn -0.1479651927947998 -0.003780060913413763 -0.9889853596687317 
vt 2.7976183891296387 3.4760711193084717 
vt -1.251039981842041 3.4760711193084717 
vt 2.7976183891296387 -2.457279920578003 
vt -1.251039981842041 -2.457279920578003 
vt -1.251039981842041 -2.457279920578003 
vt 2.7976183891296387 -2.457279920578003 
vt -1.251039981842041 3.4760711193084717 
vt 2.7976183891296387 3.4760711193084717 
vt 2.7976183891296387 3.4760711193084717 
vt 2.7976183891296387 -2.457279920578003 
vt -1.251039981842041 3.4760711193084717 
vt -1.251039981842041 -2.457279920578003 
vt 2.7976183891296387 3.4760711193084717 
vt 2.7976183891296387 -2.457279920578003 
vt -1.251039981842041 3.4760711193084717 
vt -1.251039981842041 -2.457279920578003 
vt 2.7976183891296387 3.4760711193084717 
vt 2.7976183891296387 -2.457279920578003 
vt -1.251039981842041 3.4760711193084717 
vt -1.251039981842041 -2.457279920578003 
vt 2.7976183891296387 3.4760711193084717 
vt 2.7976183891296387 -2.457279920578003 
vt -1.251039981842041 3.4760711193084717 
vt -1.251039981842041 -2.457279920578003 
vt 2.7976183891296387 3.4760711193084717 
vt -1.251039981842041 3.4760711193084717 
vt 2.7976183891296387 -2.457279920578003 
vt -1.251039981842041 -2.457279920578003 
vt 2.7976183891296387 3.4760711193084717 
vt -1.251039981842041 3.4760711193084717 
vt 2.7976183891296387 -2.457279920578003 
vt -1.251039981842041 -2.457279920578003 
s on 
f 1/1/1 2/2/2 3/3/3 
f 2/2/2 4/4/4 3/3/3 
f 3/3/3 4/4/4 4/4/4 
f 4/4/4 5/5/5 4/4/4 
f 4/4/4 5/5/5 5/5/5 
f 5/5/5 6/6/6 5/5/5 
f 5/5/5 6/6/6 7/7/7 
f 6/6/6 8/8/8 7/7/7 
f 7/7/7 8/8/8 8/8/8 
f 8/8/8 9/9/9 8/8/8 
f 8/8/8 9/9/9 9/9/9 
f 9/9/9 10/10/10 9/9/9 
f 9/9/9 10/10/10 11/11/11 
f 10/10/10 12/12/12 11/11/11 
f 11/11/11 12/12/12 12/12/12 
f 12/12/12 13/13/13 12/12/12 
f 12/12/12 13/13/13 13/13/13 
f 13/13/13 14/14/14 13/13/13 
f 13/13/13 14/14/14 15/15/15 
f 14/14/14 16/16/16 15/15/15 
f 15/15/15 16/16/16 16/16/16 
f 16/16/16 17/17/17 16/16/16 
f 16/16/16 17/17/17 17/17/17 
f 17/17/17 18/18/18 17/17/17 
f 17/17/17 18/18/18 19/19/19 
f 18/18/18 20/20/20 19/19/19 
f 19/19/19 20/20/20 20/20/20 
f 20/20/20 21/21/21 20/20/20 
f 20/20/20 21/21/21 21/21/21 
f 21/21/21 22/22/22 21/21/21 
f 21/21/21 22/22/22 23/23/23 
f 22/22/22 24/24/24 23/23/23 
f 23/23/23 24/24/24 24/24/24 
f 24/24/24 25/25/25 24/24/24 
f 24/24/24 25/25/25 25/25/25 
f 25/25/25 26/26/26 25/25/25 
f 25/25/25 26/26/26 27/27/27 
f 26/26/26 28/28/28 27/27/27 
f 27/27/27 28/28/28 28/28/28 
f 28/28/28 29/29/29 28/28/28 
f 28/28/28 29/29/29 29/29/29 
f 29/29/29 30/30/30 29/29/29 
f 29/29/29 30/30/30 31/31/31 
f 30/30/30 32/32/32 31/31/31 

