mtllib model_8.mtl
o model_8
v 621.9349975585938 534.8928833007812 -401.7330017089844 
v 621.9349975585938 120.5770034790039 -401.7330017089844 
v 621.9349975585938 534.8928833007812 401.7337646484375 
v 621.9349975585938 120.5770034790039 401.7337646484375 
vn -0.999997615814209 -2.0682260971124217e-13 0.002184694167226553 
vn -0.999997615814209 -2.0682260971124217e-13 0.002184694167226553 
vn -0.999997615814209 -2.0682260971124217e-13 0.002184694167226553 
vn -0.999997615814209 -2.0682260971124217e-13 0.002184694167226553 
vt 0.0000718161027180031 0.9941743612289429 
vt 0.0000718161027180031 0.00007170440221671015 
vt 0.9999288320541382 0.9941743612289429 
vt 0.9999288320541382 0.00007170440221671015 
s on 
f 1/1/1 2/2/2 3/3/3 
f 2/2/2 4/4/4 3/3/3 

